<svg width="24" height="24" viewBox="0 0 24 24" fill="none" xmlns="http://www.w3.org/2000/svg">
<g clip-path="url(#clip0_3_192)">
<path d="M2.25558 8.4907C7.13968 2.87331 15.6837 2.27671 21.3011 7.1608C22.2628 8.00069 22.8868 9.16123 23.057 10.4267C23.2273 11.6921 22.9322 12.9763 22.2267 14.0405C22.042 14.3075 21.777 14.5087 21.4701 14.615C21.1633 14.7213 20.8306 14.727 20.5203 14.6314L15.9658 13.1685C15.7294 13.0926 15.5158 12.9587 15.3443 12.7792C15.1727 12.5997 15.0488 12.3802 14.9836 12.1407L14.2077 9.40382C12.6661 8.99725 11.0329 9.11596 9.56631 9.74121L9.20383 12.5442C9.17344 12.791 9.08064 13.0259 8.93422 13.2268C8.78779 13.4277 8.59256 13.588 8.36697 13.6925L4.06707 15.7803C3.77304 15.9181 3.44277 15.9586 3.12415 15.896C2.80553 15.8335 2.51513 15.671 2.29506 15.4322C1.44849 14.4764 0.977824 13.2457 0.970562 11.9689C0.963301 10.6921 1.41994 9.45609 2.25558 8.4907ZM20.9788 13.2039C21.4847 12.4449 21.6965 11.5274 21.5747 10.6234C21.4528 9.71942 21.0057 8.89082 20.3169 8.29277C17.9141 6.20693 14.7818 5.15988 11.6077 5.38152C8.43355 5.60316 5.47713 7.07537 3.38755 9.4749C2.78858 10.1629 2.46091 11.0456 2.46589 11.9577C2.47087 12.8699 2.80816 13.749 3.4146 14.4304L7.7145 12.3426L8.07082 9.5466C8.10473 9.29031 8.2043 9.04714 8.35988 8.84067C8.51545 8.6342 8.72174 8.47144 8.95875 8.36819C10.7424 7.60447 12.7305 7.46096 14.6053 7.96061C14.8547 8.02837 15.0823 8.1594 15.2661 8.341C15.45 8.52259 15.5838 8.7486 15.6546 8.99711L16.4243 11.741L20.9788 13.2039Z" fill="white"/>
</g>
<defs>
<clipPath id="clip0_3_192">
<rect width="24" height="24" fill="white"/>
</clipPath>
</defs>
</svg>
