<svg width="14" height="10" viewBox="0 0 14 10" fill="none" xmlns="http://www.w3.org/2000/svg">
<path d="M8.33333 5.16666C7.83888 5.16666 7.35553 5.02004 6.94441 4.74533C6.53329 4.47063 6.21285 4.08018 6.02363 3.62337C5.83442 3.16655 5.78491 2.66388 5.88137 2.17893C5.97783 1.69398 6.21594 1.24852 6.56557 0.898891C6.9152 0.549259 7.36066 0.311157 7.84561 0.214694C8.33056 0.118231 8.83323 0.16774 9.29004 0.356959C9.74686 0.546178 10.1373 0.866609 10.412 1.27773C10.6867 1.68885 10.8333 2.1722 10.8333 2.66666C10.8333 3.3297 10.5699 3.96558 10.1011 4.43442C9.63226 4.90327 8.99638 5.16666 8.33333 5.16666ZM8.33333 1.16666C8.03666 1.16666 7.74665 1.25463 7.49998 1.41945C7.2533 1.58428 7.06105 1.81854 6.94751 2.09263C6.83398 2.36672 6.80428 2.66832 6.86216 2.95929C6.92003 3.25026 7.06289 3.51754 7.27267 3.72732C7.48245 3.9371 7.74973 4.07996 8.0407 4.13784C8.33167 4.19571 8.63327 4.16601 8.90736 4.05248C9.18145 3.93895 9.41572 3.74669 9.58054 3.50001C9.74536 3.25334 9.83333 2.96333 9.83333 2.66666C9.83333 2.26883 9.6753 1.8873 9.39399 1.606C9.11269 1.32469 8.73116 1.16666 8.33333 1.16666ZM13 9.83332C12.8679 9.8316 12.7418 9.77837 12.6484 9.68497C12.555 9.59157 12.5017 9.4654 12.5 9.33332C12.5 8.03332 11.7933 7.16666 8.33333 7.16666C4.87333 7.16666 4.16667 8.03332 4.16667 9.33332C4.16667 9.46593 4.11399 9.59311 4.02022 9.68688C3.92645 9.78065 3.79927 9.83332 3.66667 9.83332C3.53406 9.83332 3.40688 9.78065 3.31311 9.68688C3.21935 9.59311 3.16667 9.46593 3.16667 9.33332C3.16667 6.16666 6.78667 6.16666 8.33333 6.16666C9.88 6.16666 13.5 6.16666 13.5 9.33332C13.4983 9.4654 13.445 9.59157 13.3516 9.68497C13.2582 9.77837 13.1321 9.8316 13 9.83332ZM4.54667 5.70666H4.33333C3.8029 5.65538 3.31456 5.39549 2.97575 4.98416C2.63693 4.57283 2.47539 4.04376 2.52667 3.51332C2.57794 2.98289 2.83783 2.49455 3.24916 2.15574C3.66049 1.81692 4.18957 1.65538 4.72 1.70666C4.78801 1.70958 4.85471 1.72636 4.91601 1.75597C4.97731 1.78558 5.03192 1.8274 5.07648 1.87886C5.12105 1.93032 5.15464 1.99034 5.1752 2.05523C5.19575 2.12013 5.20283 2.18855 5.19602 2.25628C5.1892 2.32401 5.16862 2.38964 5.13554 2.44914C5.10246 2.50864 5.05758 2.56076 5.00365 2.6023C4.94972 2.64384 4.88788 2.67394 4.82191 2.69074C4.75594 2.70753 4.68723 2.71068 4.62 2.69999C4.48986 2.68701 4.35844 2.7004 4.23359 2.73934C4.10874 2.77829 3.99302 2.84199 3.89333 2.92666C3.79209 3.00833 3.70811 3.10933 3.6463 3.22379C3.58449 3.33825 3.54609 3.46387 3.53333 3.59332C3.51955 3.7244 3.53199 3.85691 3.56992 3.98313C3.60786 4.10936 3.67054 4.22677 3.7543 4.32852C3.83806 4.43028 3.94124 4.51435 4.05782 4.57584C4.1744 4.63733 4.30205 4.675 4.43333 4.68666C4.65036 4.70522 4.86763 4.65383 5.05333 4.53999C5.16649 4.47015 5.30276 4.44812 5.43216 4.47875C5.56156 4.50938 5.67349 4.59017 5.74333 4.70332C5.81317 4.81648 5.8352 4.95275 5.80457 5.08215C5.77394 5.21155 5.69316 5.32348 5.58 5.39332C5.2708 5.59053 4.91332 5.69893 4.54667 5.70666ZM1 9.33332C0.867929 9.3316 0.741752 9.27837 0.648356 9.18497C0.554959 9.09157 0.501727 8.9654 0.5 8.83332C0.5 7.03332 0.98 5.83332 3.33333 5.83332C3.46594 5.83332 3.59312 5.886 3.68689 5.97977C3.78066 6.07354 3.83333 6.20072 3.83333 6.33332C3.83333 6.46593 3.78066 6.59311 3.68689 6.68688C3.59312 6.78065 3.46594 6.83332 3.33333 6.83332C1.76667 6.83332 1.5 7.33332 1.5 8.83332C1.49827 8.9654 1.44504 9.09157 1.35164 9.18497C1.25825 9.27837 1.13207 9.3316 1 9.33332Z" fill="white"/>
</svg>
