<svg width="100" height="100" viewBox="0 0 100 100" fill="none" xmlns="http://www.w3.org/2000/svg">
<path fill-rule="evenodd" clip-rule="evenodd" d="M61.2528 5.00203L94.9994 38.7513C106.046 49.7972 95.4003 60.8431 95.0191 61.2387L95.0069 61.2487L61.2528 95.0006C50.0022 106.249 38.7519 95.0006 38.7519 95.0006L5.00022 61.2487C-6.25028 50 5.00022 38.7513 5.00022 38.7513L38.7519 4.9995C50.0022 -6.24937 61.2528 5.00203 61.2528 5.00203ZM62.5391 22.2847C62.5963 22.2299 62.6722 22.2007 62.7503 22.2036C62.7116 22.2003 62.6725 22.2059 62.636 22.2199C62.5994 22.2339 62.5663 22.2561 62.5391 22.2847ZM85.8319 54.8372L90.1647 50.5019C90.1647 50.5019 90.6688 50 90.1722 49.4803L86.1022 45.4087C86.1022 45.4087 86.0728 45.3781 86.0285 45.3503L85.93 45.2491C85.8978 45.2147 85.865 45.1809 85.8319 45.1475L85.3497 44.6659C85.3497 44.6659 80.5053 39.8184 75.656 44.6659L70.0885 50.2306C70.0885 50.2306 65.2416 55.0756 70.0885 59.9228L70.5703 60.4047C70.5703 60.4047 75.415 65.2494 80.2619 60.4047L83.5572 57.1087L85.8319 54.8372ZM77.8838 38.0209C77.9391 38.0453 77.9997 38.0525 78.0588 38.0416C78.1178 38.0309 78.1722 38.0025 78.216 37.96C78.3363 37.8459 78.3363 37.6584 78.2085 37.5291C78.2038 37.5231 78.1978 37.5178 78.1913 37.5141L76.1231 35.4453L75.9191 35.2425L74.9035 34.2281L74.8813 34.2028L70.841 30.1643C70.841 30.1643 70.8116 30.1338 70.7672 30.1034L70.7475 30.0832C70.6903 30.0181 70.6313 29.9547 70.5703 29.893L70.0885 29.4113C70.0885 29.4113 65.2416 24.5665 60.3947 29.4113L44.6513 45.1553C44.6513 45.1553 39.8069 49.9975 44.6513 54.845L45.1331 55.3266C45.1331 55.3266 49.9778 60.1741 54.8272 55.3266L68.2885 41.8569L70.5703 39.5775C73.2928 36.8522 76.0175 37.1997 77.8838 38.0209ZM62.63 22.7664C62.6847 22.7911 62.7453 22.7987 62.8044 22.7883C62.8634 22.778 62.9181 22.7501 62.9619 22.7082C62.9894 22.6797 63.0113 22.6458 63.026 22.6085C63.0406 22.5712 63.0478 22.5313 63.0472 22.491C63.0466 22.4508 63.0378 22.4111 63.0219 22.3743C63.0059 22.3376 62.9831 22.3045 62.9544 22.2772C62.9409 22.2662 62.9259 22.2568 62.9103 22.2493L62.8856 22.2341C62.8934 22.2396 62.9019 22.2446 62.9103 22.2493C62.925 22.2543 62.9347 22.2619 62.9472 22.2695L60.8691 20.1932L60.665 19.9904L59.6494 18.9763L59.6272 18.9509L55.5869 14.9047C55.5869 14.9047 55.555 14.8743 55.5131 14.8438L55.4935 14.8235C55.4353 14.7584 55.3756 14.695 55.3141 14.6334L54.8344 14.1517C54.8344 14.1517 49.9875 9.30434 45.1406 14.1517L29.3973 29.8956C29.3973 29.8956 24.5528 34.7378 29.3973 39.5853L29.8792 40.0669C29.8792 40.0669 34.7238 44.9119 39.5731 40.0669L53.0344 26.5972L55.3141 24.3256C58.0388 21.6003 60.7634 21.9476 62.63 22.7664ZM49.4734 69.8356L24.3118 44.6684C24.3118 44.6684 19.4673 39.8234 14.6203 44.6684L14.1383 45.15L13.9588 45.3606C13.9465 45.3719 13.9334 45.3819 13.9195 45.3909C13.9064 45.4 13.8941 45.4103 13.8826 45.4212L9.81029 49.4928C9.81029 49.4928 9.29879 49.9975 9.81029 50.5072L14.1457 54.8422L16.418 57.1138L45.1578 85.8306C45.1578 85.8306 49.9975 90.6753 54.8444 85.8306L54.8813 85.7925L55.3238 85.3487L57.1241 83.5488L57.1681 83.5056L63.2175 77.4541L65.4922 75.1825L69.8278 70.8472C69.8278 70.8472 70.3394 70.3428 69.8278 69.8331L65.7553 65.7616C65.7553 65.7616 65.726 65.7313 65.6816 65.7006C65.6485 65.6675 65.6156 65.6334 65.5835 65.5994L65.485 65.4978L65.0028 65.0163C65.0028 65.0163 60.1584 60.1713 55.3091 65.0163L50.4869 69.8409C49.9825 70.3275 49.4784 69.8331 49.4784 69.8331L49.4734 69.8356Z" fill="white"/>
</svg>
